HIERARCHY
ROOT hip
{
	OFFSET 0.000000 0.000000 0.000000 
	CHANNELS 6 Xposition Yposition Zposition Xrotation Zrotation Yrotation
	JOINT abdomen
	{
		OFFSET 0.000000 3.402643 0.000000 
		CHANNELS 3 Xrotation Zrotation Yrotation
		JOINT chest
		{
			OFFSET 0.000000 8.438565 -0.680529 
			CHANNELS 3 Xrotation Zrotation Yrotation
			JOINT neck
			{
				OFFSET 0.000000 10.207942 -0.272212 
				CHANNELS 3 Xrotation Zrotation Yrotation
				JOINT head
				{
					OFFSET 0.000000 3.130431 0.000000 
					CHANNELS 3 Xrotation Zrotation Yrotation
					End Site
					{
						OFFSET 0.000000 3.130435 0.000000 
					}
				}
			}
			JOINT lCollar
			{
				OFFSET 3.470700 6.669187 -0.816635 
				CHANNELS 3 Yrotation Zrotation Xrotation
				JOINT lShldr
				{
					OFFSET 3.198488 0.000000 0.000000 
					CHANNELS 3 Zrotation Yrotation Xrotation
					JOINT lForeArm
					{
						OFFSET 10.139888 0.000000 0.000000 
						CHANNELS 3 Yrotation Zrotation Xrotation
						JOINT lHand
						{
							OFFSET 8.370511 0.000000 0.000000 
							CHANNELS 3 Zrotation Yrotation Xrotation
							End Site
							{
								OFFSET 4.083176 0.000000 0.000000 
							}
						}
					}
				}
			}
			JOINT rCollar
			{
				OFFSET -3.470700 6.669187 -0.816635 
				CHANNELS 3 Yrotation Zrotation Xrotation
				JOINT rShldr
				{
					OFFSET -3.198488 0.000000 0.000000 
					CHANNELS 3 Zrotation Yrotation Xrotation
					JOINT rForeArm
					{
						OFFSET -10.139888 0.000000 0.000000 
						CHANNELS 3 Yrotation Zrotation Xrotation
						JOINT rHand
						{
							OFFSET -8.370511 0.000000 0.000000 
							CHANNELS 3 Zrotation Yrotation Xrotation
							End Site
							{
								OFFSET -4.083176 0.000000 0.000000 
							}
						}
					}
				}
			}
		}
	}
	JOINT lThigh
	{
		OFFSET 5.308129 -1.633274 1.361059 
		CHANNELS 3 Xrotation Zrotation Yrotation
		JOINT lShin
		{
			OFFSET -2.041588 -20.007561 0.000000 
			CHANNELS 3 Xrotation Zrotation Yrotation
			JOINT lFoot
			{
				OFFSET 0.000000 -19.190928 -1.224953 
				CHANNELS 3 Xrotation Yrotation Zrotation
				End Site
				{
					OFFSET 0.000000 -2.449906 4.627600 
				}
			}
		}
	}
	JOINT rThigh
	{
		OFFSET -5.308129 -1.633274 1.361059 
		CHANNELS 3 Xrotation Zrotation Yrotation
		JOINT rShin
		{
			OFFSET 2.041588 -20.007561 0.000000 
			CHANNELS 3 Xrotation Zrotation Yrotation
			JOINT rFoot
			{
				OFFSET 0.000000 -19.190928 -1.224953 
				CHANNELS 3 Xrotation Yrotation Zrotation
				End Site
				{
					OFFSET 0.000000 -2.449906 4.627600 
				}
			}
		}
	}
}
MOTION
Frames: 15
Frame Time: 0.016667
-0.892362 47.856163 -0.705382 -6.519403 5.449295 13.176390 15.719366 -9.774874 0.594011 0.000000 0.000000 0.000000 0.344085 6.501874 -26.629095 0.000000 0.000000 0.000000 0.000000 0.000000 0.000000 -44.131149 5.565902 72.643600 -54.188160 22.922234 16.429779 -5.049648 -7.842765 -2.029842 0.000000 0.000000 0.000000 62.602524 -13.141227 62.213757 44.073009 -20.974319 1.229655 -11.008112 -1.356867 -30.249504 -1.911274 -2.055401 -5.515906 15.947580 -1.952118 -0.038365 -7.397686 -8.000598 -1.247615 -5.539612 -24.888050 -37.209206 15.044996 -1.460954 19.308956 2.040583 1.680237 8.711206 
-0.953943 47.867359 -0.682988 -6.694144 5.266563 12.819133 15.464469 -8.983424 0.839719 0.000000 0.000000 0.000000 0.703430 6.495933 -25.122475 0.000000 0.000000 0.000000 0.000000 0.000000 0.000000 -45.666718 4.734210 73.046158 -50.964798 21.974142 14.732933 -4.718945 -7.649988 -3.014714 0.000000 0.000000 0.000000 63.430874 -11.933588 62.442997 40.721855 -20.842041 0.460748 -9.395255 -0.295850 -30.240345 -1.356188 -1.989438 -5.123634 15.335656 -1.942594 0.182264 -7.049680 -7.722476 -0.805704 -4.660084 -23.648443 -36.619286 14.535445 -1.225551 19.507240 1.618920 1.665055 7.883447 
-0.953943 47.984928 -0.761366 -6.869928 5.008125 12.392214 15.193626 -7.741891 1.389395 0.000000 0.000000 0.000000 1.140488 6.243926 -22.582466 0.000000 0.000000 0.000000 0.000000 0.000000 0.000000 -48.362450 3.351466 73.552017 -45.519905 20.091543 12.095159 -4.103623 -7.216691 -4.810880 0.000000 0.000000 0.000000 64.395607 -9.781843 63.342190 35.510014 -20.252373 -0.445596 -6.779713 1.332889 -30.305447 -0.623619 -1.741035 -4.364485 14.801635 -2.028323 0.173403 -6.806662 -6.975008 -0.260079 -3.098083 -21.519865 -35.780991 13.498940 -0.665855 19.886148 1.040927 1.487849 6.635530 
-0.953943 48.102482 -0.839740 -7.034858 4.739166 11.955836 14.927983 -6.510022 1.926075 0.000000 0.000000 0.000000 1.564083 5.974811 -20.054136 0.000000 0.000000 0.000000 0.000000 0.000000 0.000000 -51.061623 2.017889 74.123108 -40.225403 17.986418 9.684464 -3.499229 -6.760872 -6.599166 0.000000 0.000000 0.000000 65.386070 -7.654777 64.269211 30.349192 -19.582220 -1.281629 -4.175079 2.960398 -30.311054 0.116593 -1.511537 -3.642180 14.274946 -2.129266 0.202165 -6.532091 -6.231192 0.294070 -1.517467 -19.407850 -34.894085 12.476377 -0.112679 20.255098 0.457859 1.336040 5.390362 
-0.875563 47.912132 -1.147660 -7.478465 4.740079 11.338758 15.186676 -5.454014 2.451695 0.000000 0.000000 0.000000 2.118939 5.275868 -17.400255 0.000000 0.000000 0.000000 0.000000 0.000000 0.000000 -53.459015 0.322149 75.082420 -35.599056 15.656727 7.697756 -3.344855 -6.526483 -8.619557 0.000000 0.000000 0.000000 64.384430 -4.935514 66.551559 27.638706 -18.138361 -1.267518 -1.481934 4.436904 -30.759279 0.829916 -1.962579 -2.607323 14.471005 -1.953521 0.317239 -6.789921 -5.694099 0.820222 -0.394014 -17.377918 -34.258263 13.565307 -1.681793 20.473572 -1.629493 1.718686 5.204329 
-0.797184 47.721786 -1.455560 -7.921974 4.740402 10.720867 15.455040 -4.398374 2.977224 0.000000 0.000000 0.000000 2.629821 4.552278 -14.763879 0.000000 0.000000 0.000000 0.000000 0.000000 0.000000 -55.886024 -1.330376 76.112289 -31.094378 13.196025 5.929496 -3.193666 -6.276855 -10.640330 0.000000 0.000000 0.000000 63.490486 -2.198316 68.773041 24.956625 -16.697018 -1.187886 1.195936 5.932461 -31.145140 1.512468 -2.419792 -1.546122 14.692427 -1.787032 0.420637 -7.052790 -5.174927 1.320551 0.749060 -15.357791 -33.584110 14.652177 -3.274474 20.679413 -3.712549 2.105618 5.031943 
-0.674020 47.430672 -1.645904 -8.888307 5.365052 10.113275 17.210808 -4.310254 3.064868 0.000000 0.000000 0.000000 3.448330 3.254432 -12.999354 0.000000 0.000000 0.000000 0.000000 0.000000 0.000000 -55.621628 -3.195600 76.817169 -30.591686 13.124276 4.281579 -3.903152 -5.990552 -9.885943 0.000000 0.000000 0.000000 59.704800 0.963368 69.993515 28.532251 -17.082972 1.805102 6.591952 8.680967 -29.575317 2.369460 -3.432278 -0.582604 15.954500 -1.718740 0.808454 -7.701074 -4.734386 1.796070 0.046251 -14.937525 -33.489700 19.251511 -7.511484 21.382160 -4.538892 2.894575 7.567057 
-0.550864 47.139603 -1.836220 -9.852588 5.972336 9.496289 18.965580 -4.231849 3.162262 0.000000 0.000000 0.000000 4.216524 1.925160 -11.256363 0.000000 0.000000 0.000000 0.000000 0.000000 0.000000 -55.378933 -5.069009 77.520348 -30.090801 13.046802 2.634959 -4.603691 -5.697155 -9.137942 0.000000 0.000000 0.000000 55.981873 4.198792 71.008949 32.132549 -17.291428 4.825552 12.100534 11.277927 -27.733604 3.219938 -4.469064 0.344499 17.213703 -1.662989 1.215348 -8.351920 -4.314934 2.257524 -0.626238 -14.519662 -33.403225 23.851274 -11.797852 21.747744 -5.407122 3.675280 10.145446 
-0.506078 47.313152 -1.701861 -10.730711 6.505380 9.329083 20.468285 -4.494776 3.242368 0.000000 0.000000 0.000000 5.441311 -0.009587 -10.966798 0.000000 0.000000 0.000000 0.000000 0.000000 0.000000 -54.206398 -5.759165 76.621857 -31.928755 14.793488 1.358353 -2.620971 -4.129275 -9.020842 0.000000 0.000000 0.000000 53.203255 4.927584 67.806572 36.203362 -20.648148 7.864193 17.014915 13.826363 -24.894417 3.677210 -5.725985 0.096282 19.032152 -1.315298 2.153315 -9.403155 -4.386539 2.482200 -2.717869 -15.207281 -33.187370 28.158068 -16.045441 21.565998 -6.429199 2.734541 10.958426 
-0.461294 47.486698 -1.567489 -11.614723 7.029437 9.151816 21.971067 -4.757701 3.312075 0.000000 0.000000 0.000000 6.667810 -1.947794 -10.729002 0.000000 0.000000 0.000000 0.000000 0.000000 0.000000 -53.019077 -6.432915 75.708755 -33.742371 16.567989 0.143489 -0.647867 -2.562095 -8.850410 0.000000 0.000000 0.000000 50.382763 5.497031 64.565987 40.560509 -23.767349 11.231962 22.104170 16.128571 -21.801527 4.138070 -6.988227 -0.172281 20.847681 -0.990223 3.078711 -10.432560 -4.451548 2.710016 -4.824380 -15.888924 -32.934952 32.589645 -20.262104 21.027470 -7.401160 1.802861 11.761295 
-0.444499 47.716232 -1.304367 -11.173844 7.028618 10.559005 22.235348 -5.019543 3.578108 0.000000 0.000000 0.000000 7.257020 -3.454104 -12.308383 0.000000 0.000000 0.000000 0.000000 0.000000 0.000000 -54.066963 -4.336855 72.154221 -35.749321 18.133049 0.114590 3.455530 -0.129889 -11.580711 0.000000 0.000000 0.000000 53.516754 2.730505 59.010384 39.106876 -29.438065 8.747444 11.355016 13.995750 -26.034086 3.524280 -7.389768 -1.155215 21.571922 -0.772223 3.129911 -10.685508 -4.482628 2.654263 -6.534657 -18.236252 -31.955477 31.340858 -19.237297 22.008371 -8.495683 0.529983 10.547376 
-0.427683 47.945744 -1.041217 -10.732340 7.023341 11.967284 22.496523 -5.290869 3.844208 0.000000 0.000000 0.000000 7.901299 -4.939433 -13.910874 0.000000 0.000000 0.000000 0.000000 0.000000 0.000000 -55.242432 -2.317597 68.576141 -37.767517 19.691116 0.154601 7.451612 2.485758 -14.124429 0.000000 0.000000 0.000000 56.898067 0.274138 53.313343 37.262897 -35.034027 5.934723 0.904017 11.149572 -29.748404 2.910197 -7.802234 -2.154433 22.274082 -0.576104 3.200355 -10.947609 -4.525712 2.624496 -8.311571 -20.549946 -30.886021 30.131239 -18.174852 22.978107 -9.611505 -0.770499 9.338791 
-0.237340 47.996128 -0.542967 -9.237771 7.237755 14.425198 21.437330 -5.897292 3.494262 0.000000 0.000000 0.000000 7.892875 -5.024257 -15.579605 0.000000 0.000000 0.000000 0.000000 0.000000 0.000000 -57.027538 -0.526810 67.038597 -37.866360 20.376251 0.732743 8.031283 3.787683 -15.035618 0.000000 0.000000 0.000000 63.275486 -2.353370 48.578739 34.149544 -36.767174 4.293173 -8.933175 4.694315 -32.831398 2.117140 -7.357274 -3.325784 20.419220 -0.752985 2.650915 -9.364957 -5.117361 2.523582 -7.960750 -23.020184 -30.067825 24.306166 -12.413641 24.002424 -8.154248 -0.981244 9.591825 
-0.046999 48.046490 -0.044731 -7.738028 7.376378 16.892454 20.374144 -6.513634 3.154391 0.000000 0.000000 0.000000 7.893316 -5.112196 -17.249115 0.000000 0.000000 0.000000 0.000000 0.000000 0.000000 -58.859947 1.213584 65.450401 -37.974659 21.051672 1.317970 8.602275 5.098759 -15.928749 0.000000 0.000000 0.000000 69.857887 -4.431532 43.567375 30.898542 -38.413940 2.505379 -18.392366 -2.190821 -34.762409 1.337161 -6.950135 -4.518074 18.541977 -0.938405 2.116177 -7.798078 -5.723333 2.399792 -7.647862 -25.503872 -29.247591 18.674807 -6.559426 24.417194 -6.694045 -1.188316 9.849386 
0.126549 47.945724 0.341552 -6.336965 7.670638 19.173485 18.445660 -8.351549 2.496968 0.000000 0.000000 0.000000 8.527369 -4.065644 -18.133701 0.000000 0.000000 0.000000 0.000000 0.000000 0.000000 -57.303402 2.362564 66.766037 -39.125233 19.846466 3.932403 3.179991 3.171142 -11.461719 0.000000 0.000000 0.000000 73.710014 -6.928040 43.975998 29.802958 -33.063469 1.715505 -17.227827 -0.955338 -32.503731 1.103970 -6.904158 -5.969555 16.773964 -1.337684 1.339569 -6.981364 -6.030026 2.093651 -6.095835 -27.026131 -32.133484 14.790790 -2.719371 23.456636 -0.314271 2.428983 11.434925 
